<?xml version="1.0" encoding="UTF-8"?>
<svg width="78px" height="79px" viewBox="0 0 78 79" version="1.1" xmlns="http://www.w3.org/2000/svg" xmlns:xlink="http://www.w3.org/1999/xlink">
    <!-- Generator: Sketch 54 (76480) - https://sketchapp.com -->
    <title>Group 5</title>
    <desc>Created with Sketch.</desc>
    <g id="Page-1" stroke="none" stroke-width="1" fill="none" fill-rule="evenodd">
        <g id="1.1-Homepage-Copy-9" transform="translate(-616.000000, -1320.000000)">
            <g id="Group-5" transform="translate(617.000000, 1321.286071)">
                <path d="M33.5977242,51.4357312 L33.5809898,51.4357312 C31.7820445,54.0474891 29.6543883,56.3711766 27.4813102,57.9585516 C24.8946539,59.8471453 22.4167711,60.4746844 20.6500992,59.3702156 C18.6670758,58.1677312 16.357732,56.7166219 14.406982,55.4615437 C12.6546539,54.3331687 12.1370836,51.870825 12.7502789,48.7462781 C13.4782242,45.0432 15.5831695,40.7854969 18.2582789,37.2413953 L18.2618648,22.6035984 C18.2618648,20.5345125 20.1157945,18.784575 23.112443,17.6299031 C28.788982,15.4400906 37.5530133,15.4412859 43.228357,17.6299031 C46.2238102,18.784575 48.0789352,20.5345125 48.0789352,22.6035984 L48.0813258,29.6655047 C51.8250445,29.6224734 55.5986461,30.1687312 58.5438961,31.3042781 C61.5393492,32.45895 63.3932789,34.2088875 63.3944742,36.2767781 L63.3992555,51.0102 C63.4004508,53.0792859 61.5393492,54.8220516 58.5427008,55.9779187 C52.867357,58.1665359 44.1033258,58.1665359 38.4267867,55.9779187 C35.635732,54.9009422 33.8308102,53.3195437 33.5977242,51.4357312 M37.146607,44.7730594 C37.6761305,45.1878328 38.4578648,45.5918484 39.4344352,45.9683719 C44.452357,47.9035828 52.5183258,47.9035828 57.533857,45.9683719 C59.427232,45.2380359 60.5950523,44.3917547 60.5950523,43.5837234 C60.6046148,42.4768641 60.5950523,41.3676141 60.5950523,40.2595594 C59.9926148,40.6265203 59.3053102,40.9588172 58.5427008,41.2516688 C52.867357,43.4414813 44.1033258,43.4402859 38.4267867,41.2516688 C38.355068,41.2253719 38.2869352,41.1978797 38.217607,41.1703875 C37.9869117,42.3298406 37.6199508,43.5442781 37.146607,44.7730594 M38.4710133,38.2741453 C38.8439508,38.445075 39.1905914,38.5777547 39.4344352,38.6721844 C44.452357,40.6073953 52.5183258,40.6073953 57.533857,38.6721844 C58.3239586,38.368575 60.6249352,37.4625281 60.6010289,36.2719969 C60.6010289,35.4639656 59.4284273,34.6140984 57.5350523,33.8837625 C52.5183258,31.9485516 44.452357,31.9485516 39.4356305,33.8837625 C38.546318,34.2268172 37.8100055,34.5973641 37.284068,34.9786687 C38.0203805,35.7532312 38.4040758,36.8923641 38.4710133,38.2741453 M34.9257164,33.4008563 C35.7624352,32.5808719 36.9577477,31.8708563 38.4267867,31.3042781 C40.420568,30.5356922 42.7932633,30.0372469 45.2795133,29.8077469 C45.2878805,28.7343563 45.2795133,27.6597703 45.2795133,26.5863797 L45.2795133,26.5851844 C44.6782711,26.9521453 43.9885758,27.2844422 43.228357,27.5784891 C37.551818,29.7671063 28.7877867,29.7671063 23.112443,27.5772938 C22.3498336,27.2844422 21.6625289,26.9521453 21.0600914,26.5851844 C21.0600914,27.6944344 21.0887789,28.8108563 21.0600914,29.9189109 C21.0600914,30.6181688 21.9314742,31.3377469 23.3933414,31.9927781 C23.4280055,31.9676766 23.4614742,31.9413797 23.4961383,31.9162781 C26.0827945,30.0276844 28.5582867,29.4240516 30.3345211,30.5153719 C31.7748727,31.3987078 33.3885445,32.4410203 34.9257164,33.4008563 M19.5814898,51.8385516 C23.9144977,48.6757547 28.2247945,41.9270203 29.2503727,36.6963328 C29.4129352,35.8739578 29.8695445,33.4642078 28.8379898,32.8498172 C28.1470992,32.4183094 26.7963961,32.9442469 25.1600133,34.1383641 C20.8270055,37.3023563 16.5202945,44.0498953 15.4923258,49.2817781 C15.1038492,51.2552391 15.1970836,52.712325 15.898732,53.1247078 C16.9685367,53.7522469 18.8332242,52.3860047 19.5814898,51.8385516 M19.3053727,55.2475828 C20.2532555,55.8392625 21.2214586,56.4118172 22.152607,57.0285984 C22.8434977,57.4589109 24.1810523,56.9305828 25.8162398,55.7364656 C30.1492477,52.5724734 34.4571539,45.8249344 35.4839273,40.5930516 C35.8712086,38.6183953 35.7708023,37.1911922 35.0823023,36.7596844 C34.1403961,36.1608328 33.1889273,35.576325 32.2410445,34.9846453 C32.231482,35.6839031 32.1502008,36.43695 31.9936148,37.2306375 C30.8317711,43.1486297 26.149732,50.4806766 21.2489508,54.0606375 C20.5903336,54.5411531 19.9400836,54.9391922 19.3053727,55.2475828 M60.5986383,47.5593328 C59.9938102,47.9239031 59.3041148,48.2550047 58.5427008,48.5490516 C52.867357,50.7376688 44.1033258,50.7376688 38.4267867,48.5478563 C37.6689586,48.2562 36.9864352,47.9274891 36.3863883,47.5653094 C36.3887789,48.9757781 36.3887789,50.4699188 36.3732398,51.0233484 C36.3756305,51.8301844 37.5410602,52.6680984 39.4344352,53.3972391 C44.452357,55.33245 52.5183258,55.33245 57.533857,53.3972391 C59.427232,52.6680984 60.5950523,51.8218172 60.5950523,51.0137859 C60.5998336,50.4603563 60.5998336,48.9686063 60.5986383,47.5593328 M24.1188961,24.9978094 C29.136818,26.9330203 37.2027867,26.9330203 42.2207086,24.9978094 C43.0096148,24.6942 45.3105914,23.7893484 45.2842945,22.5976219 C45.2842945,21.7895906 44.1140836,20.9397234 42.2207086,20.2093875 C37.203982,18.2753719 29.1380133,18.2741766 24.1188961,20.2093875 C22.2255211,20.9397234 21.0314039,21.7955672 21.0553102,22.6035984 C21.0899742,23.8323797 23.2522945,24.6631219 24.1188961,24.9978094" id="Fill-1" fill="#00305F"></path>
                <path d="M37.9517695,75.6039937 C58.7454258,75.6039937 75.6041133,58.7453062 75.6041133,37.95165 C75.6041133,17.1567984 58.7454258,0.29930625 37.9517695,0.29930625 C17.156918,0.29930625 0.299425781,17.1567984 0.299425781,37.95165 C0.299425781,58.7453062 17.156918,75.6039937 37.9517695,75.6039937 Z" id="Stroke-3" stroke="#00305F" stroke-width="2.5"></path>
            </g>
        </g>
    </g>
</svg>