<?xml version="1.0" encoding="UTF-8"?>
<svg width="77px" height="70px" viewBox="0 0 77 70" version="1.1" xmlns="http://www.w3.org/2000/svg" xmlns:xlink="http://www.w3.org/1999/xlink">
    <!-- Generator: Sketch 54 (76480) - https://sketchapp.com -->
    <title>Fill 11</title>
    <desc>Created with Sketch.</desc>
    <g id="Page-1" stroke="none" stroke-width="1" fill="none" fill-rule="evenodd">
        <g id="1.1-Homepage-Copy-9" transform="translate(-1015.000000, -1328.000000)" fill="#00305F">
            <g id="Group-11" transform="translate(1015.000000, 1328.536071)">
                <path d="M62.0454545,35.7956932 L62.0454545,38.1820568 L64.4318182,38.1820568 L64.4318182,40.5684205 L62.0454545,40.5684205 L62.0454545,42.9547841 L59.6590909,42.9547841 L59.6590909,40.5684205 L57.2727273,40.5684205 L57.2727273,38.1820568 L59.6590909,38.1820568 L59.6590909,35.7956932 L62.0454545,35.7956932 Z M38.1818182,63.6129375 L49.7294318,22.6712898 L44.1477273,22.6712898 L44.1477273,20.2849261 L48.9514773,20.2849261 L38.1818182,5.59805114 L27.4121591,20.2849261 L32.2159091,20.2849261 L32.2159091,22.6712898 L26.6330114,22.6712898 L38.1818182,63.6129375 Z M24.1523864,22.6712898 L3.66545455,22.6712898 L35.4207955,62.619017 L24.1523864,22.6712898 Z M12.0308523,5.73288068 L3.30034091,20.2849261 L22.7014773,20.2849261 L12.0308523,5.73288068 Z M35.8264773,4.77236932 L14.2871591,4.77236932 L25.0568182,19.4580511 L35.8264773,4.77236932 Z M73.0632955,20.2849261 L64.3327841,5.73288068 L53.6621591,20.2849261 L73.0632955,20.2849261 Z M76.1930114,20.8636193 C76.4519318,21.2955511 76.4125568,21.8432216 76.0939773,22.2321989 L65.3553409,35.3571989 L63.5082955,33.8466307 L72.6516477,22.6712898 L52.2100568,22.6712898 L40.9297159,62.6667443 L56.3408523,43.4016307 L58.2046023,44.893108 L39.1136932,68.7567443 C38.8869886,69.0395284 38.5445455,69.2041875 38.1818182,69.2041875 L38.1794318,69.2041875 C37.8155114,69.2041875 37.4730682,69.037142 37.2475568,68.7531648 L0.258920455,22.2190739 C-0.0501136364,21.8300966 -0.0859090909,21.2895852 0.170625,20.8624261 L10.9092614,2.96469886 C11.1240341,2.60674432 11.510625,2.38600568 11.9318182,2.38600568 L45.3409091,2.38600568 L45.3409091,4.77236932 L40.5371591,4.77236932 L51.3068182,19.4580511 L62.0764773,4.77236932 L57.2727273,4.77236932 L57.2727273,2.38600568 L64.4318182,2.38600568 C64.8518182,2.38600568 65.2384091,2.60674432 65.454375,2.96589205 L76.1930114,20.8636193 Z M50.1136364,7.15932955 L50.1136364,4.77296591 L47.7272727,4.77296591 L47.7272727,2.38660227 L50.1136364,2.38660227 L50.1136364,0.000238636364 L52.5,0.000238636364 L52.5,2.38660227 L54.8863636,2.38660227 L54.8863636,4.77296591 L52.5,4.77296591 L52.5,7.15932955 L50.1136364,7.15932955 Z M39.375,17.8979659 L39.375,20.2843295 L41.7613636,20.2843295 L41.7613636,22.6706932 L39.375,22.6706932 L39.375,25.0570568 L36.9886364,25.0570568 L36.9886364,22.6706932 L34.6022727,22.6706932 L34.6022727,20.2843295 L36.9886364,20.2843295 L36.9886364,17.8979659 L39.375,17.8979659 Z M14.3181818,46.5343295 L14.3181818,48.9206932 L16.7045455,48.9206932 L16.7045455,51.3070568 L14.3181818,51.3070568 L14.3181818,53.6934205 L11.9318182,53.6934205 L11.9318182,51.3070568 L9.54545455,51.3070568 L9.54545455,48.9206932 L11.9318182,48.9206932 L11.9318182,46.5343295 L14.3181818,46.5343295 Z" id="Fill-11"></path>
            </g>
        </g>
    </g>
</svg>