<?xml version="1.0" encoding="UTF-8"?>
<svg width="78px" height="79px" viewBox="0 0 78 79" version="1.1" xmlns="http://www.w3.org/2000/svg" xmlns:xlink="http://www.w3.org/1999/xlink">
    <!-- Generator: Sketch 54 (76480) - https://sketchapp.com -->
    <title>Group 14</title>
    <desc>Created with Sketch.</desc>
    <g id="Page-1" stroke="none" stroke-width="1" fill="none" fill-rule="evenodd">
        <g id="1.1-Homepage-Copy-9" transform="translate(-217.000000, -1320.000000)" fill="#00305F">
            <g id="Group-14" transform="translate(217.000000, 1320.536071)">
                <path d="M29.3347031,32.9061281 L32.1926719,32.9061281 L36.2291719,28.8696281 L41.1041719,38.6196281 L46.8176719,32.9061281 L48.6652969,32.9061281 C48.0620156,37.7080031 43.9621406,41.4373781 39.0006094,41.4373781 C34.0378594,41.4373781 29.9379844,37.7080031 29.3347031,32.9061281 M39.0006094,21.9373781 C43.9621406,21.9373781 48.0620156,25.6667531 48.6652969,30.4686281 L45.8085469,30.4686281 L41.7720469,34.5051281 L36.8970469,24.7551281 L31.1835469,30.4686281 L29.3347031,30.4686281 C29.9379844,25.6667531 34.0378594,21.9373781 39.0006094,21.9373781 M51.1259531,32.9061281 L53.6256094,32.9061281 L53.6256094,30.4686281 L51.1259531,30.4686281 C50.5117031,24.3188156 45.3088594,19.4998781 39.0006094,19.4998781 C32.6911406,19.4998781 27.4870781,24.3188156 26.8740469,30.4686281 L24.3756094,30.4686281 L24.3756094,32.9061281 L26.8740469,32.9061281 C27.4870781,39.0559406 32.6911406,43.8748781 39.0006094,43.8748781 C45.3088594,43.8748781 50.5117031,39.0559406 51.1259531,32.9061281" id="Fill-1"></path>
                <path d="M37.2148969,65.8123781 L34.7773969,62.1561281 L31.6878656,62.1561281 L31.6878656,59.7186281 L46.3128656,59.7186281 L46.3128656,62.1561281 L43.2233344,62.1561281 L40.7858344,65.8123781 L37.2148969,65.8123781 Z M31.6878656,57.2811281 L46.3128656,57.2811281 L46.3128656,54.8436281 L31.6878656,54.8436281 L31.6878656,57.2811281 Z M30.9212719,46.3989094 C25.3808344,44.1832219 21.9378656,38.5452844 21.9378656,31.6873781 C21.9378656,22.2786281 29.5916156,14.6248781 39.0003656,14.6248781 C48.4091156,14.6248781 56.0628656,22.2786281 56.0628656,31.6873781 C56.0628656,38.5452844 52.6198969,44.1832219 47.0782406,46.3989094 L46.3128656,46.7060344 L46.3128656,52.4061281 L31.6878656,52.4061281 L31.6878656,46.7060344 L30.9212719,46.3989094 Z M44.5273969,64.5936281 L51.1878656,64.5936281 L51.1878656,62.1561281 L48.7503656,62.1561281 L48.7503656,59.7186281 L51.1878656,59.7186281 L51.1878656,57.2811281 L48.7503656,57.2811281 L48.7503656,54.8436281 L51.1878656,54.8436281 L51.1878656,52.4061281 L48.7503656,52.4061281 L48.7503656,48.3330656 C54.7856156,45.5457844 58.5003656,39.2485031 58.5003656,31.6873781 C58.5003656,20.9355656 49.7521781,12.1873781 39.0003656,12.1873781 C28.2485531,12.1873781 19.5003656,20.9355656 19.5003656,31.6873781 C19.5003656,39.2485031 23.2138969,45.5457844 29.2503656,48.3330656 L29.2503656,52.4061281 L26.8128656,52.4061281 L26.8128656,54.8436281 L29.2503656,54.8436281 L29.2503656,57.2811281 L26.8128656,57.2811281 L26.8128656,59.7186281 L29.2503656,59.7186281 L29.2503656,62.1561281 L26.8128656,62.1561281 L26.8128656,64.5936281 L33.4733344,64.5936281 L35.9108344,68.2498781 L42.0898969,68.2498781 L44.5273969,64.5936281 Z" id="Fill-3"></path>
                <path d="M35.9259469,2.56888125 L32.0442281,6.4506 L33.7675406,8.1739125 L41.9416969,-0.00024375 L38.9996344,-0.00024375 C22.8975094,-0.00024375 8.23960313,10.1105063 2.52610313,25.16085 L4.80516563,26.0261625 C9.79594688,12.880725 22.0651031,3.754725 35.9259469,2.56888125" id="Fill-5"></path>
                <path d="M52.8348844,2.52549375 L51.9695719,4.80455625 C65.1174469,9.7953375 74.2446656,22.063275 75.4305094,35.9265563 L71.5487906,32.0448375 L69.8254781,33.76815 L77.9996344,41.9423063 L77.9996344,39.0002438 C77.9996344,22.8969 67.8864469,8.23899375 52.8348844,2.52549375" id="Fill-8"></path>
                <path d="M42.0738094,75.430875 L45.9555281,71.5491562 L44.2322156,69.8258437 L36.0580594,78 L39.0001219,78 C55.1022469,78 69.7601531,67.88925 75.4736531,52.8389062 L73.1945906,51.9735937 C68.2038094,65.1190312 55.9346531,74.2450312 42.0738094,75.430875" id="Fill-10"></path>
                <path d="M2.569125,42.0735656 L6.45084375,45.9552844 L8.17415625,44.2319719 L0,36.0578156 L0,38.9998781 C0,55.1007844 10.1095313,69.7574719 25.1574375,75.4721906 L26.02275,73.1931281 C12.87975,68.2023469 3.75496875,55.9331906 2.569125,42.0735656" id="Fill-12"></path>
            </g>
        </g>
    </g>
</svg>